<?xml version="1.0" encoding="iso-8859-1"?>
<!-- Uploaded to: SVG Repo, www.svgrepo.com, Generator: SVG Repo Mixer Tools -->
<svg height="800px" width="800px" version="1.1" id="Layer_1" xmlns="http://www.w3.org/2000/svg" xmlns:xlink="http://www.w3.org/1999/xlink" 
	 viewBox="0 0 512.001 512.001" xml:space="preserve">
<path style="fill:#E4F1FB;" d="M505.286,110.93c-0.711-2.002-1.531-4.094-2.506-6.396l-7.293-17.204L256,208.157L16.515,87.331
	l-7.293,17.204c-0.976,2.302-1.795,4.395-2.504,6.387c-10.638,29.876-8.542,62.65,5.605,91.033
	C-0.635,259.05,31.043,317.586,86.89,337.47l165.261,59.222h7.698l2.847-1.015c12.157-4.331,160.921-57.669,162.385-58.195
	c55.88-19.896,87.559-78.432,74.601-135.527C513.826,173.575,515.923,140.804,505.286,110.93z"/>
<path style="fill:#93C7EF;" d="M505.286,110.93c-0.711-2.002-1.531-4.094-2.506-6.396l-7.293-17.204L256,208.157v89.733
	l243.679-95.935C513.826,173.575,515.923,140.804,505.286,110.93z"/>
<path style="fill:#AED5F3;" d="M6.714,110.93c0.711-2.002,1.531-4.094,2.506-6.396l7.293-17.204L256,208.157v89.733L12.322,201.954
	C-1.824,173.575-3.923,140.804,6.714,110.93z"/>
<path style="fill:#C9E3F7;" d="M314.29,273.488c0-20.524-10.759-38.645-26.908-49.038c19.519-11.004-82.284-11.004-62.765,0
	c-16.149,10.393-26.908,28.514-26.908,49.038v41.168c0,39.536-11.427,78.23-32.907,111.423
	c20.797,27.686,53.904,45.596,91.197,45.596c37.292,0,70.401-17.91,91.197-45.596c-21.48-33.194-32.907-71.887-32.907-111.423
	V273.488z"/>
<path style="fill:#AED5F3;" d="M314.29,314.654v-41.168c0-20.524-10.759-38.645-26.908-49.038
	c9.759-5.503-10.812-8.254-31.382-8.254v255.48c37.292,0,70.401-17.91,91.197-45.596C325.718,392.884,314.29,354.19,314.29,314.654z
	"/>
<path style="fill:#FFF0B4;" d="M305.181,55.377C291.593,45.672,274.127,40.327,256,40.327s-35.592,5.345-49.181,15.051
	c-16.903,12.073-26.597,29.958-26.597,49.069s9.694,36.994,26.597,49.069c13.587,9.705,31.054,15.051,49.181,15.051
	s35.592-5.345,49.181-15.051c16.903-12.073,26.597-29.958,26.597-49.069S322.084,67.45,305.181,55.377z M256,133.591
	c-22.535,0-40.803-13.049-40.803-29.145S233.465,75.301,256,75.301s40.803,13.049,40.803,29.145S278.535,133.591,256,133.591z"/>
<path style="fill:#FFDA44;" d="M305.181,55.377C291.593,45.672,274.127,40.327,256,40.327v34.974
	c22.535,0,40.803,13.049,40.803,29.145S278.535,133.591,256,133.591v34.974c18.127,0,35.592-5.345,49.181-15.051
	c16.903-12.073,26.597-29.958,26.597-49.069S322.084,67.45,305.181,55.377z"/>
<circle style="fill:#FFE6C6;" cx="255.999" cy="168.564" r="64.119"/>
<path style="fill:#FFD6A0;" d="M256,104.446c35.412,0,64.119,28.708,64.119,64.119c0,35.412-28.707,64.119-64.119,64.119"/>
</svg>